solid OpenSCAD_Model
  facet normal 0.338738 -0.940881 0
    outer loop
      vertex 6.18034 -18.0211 -23
      vertex 7.36249 -17.5955 27
      vertex 6.18034 -18.0211 27
    endloop
  endfacet
  facet normal 0.338738 -0.940881 0
    outer loop
      vertex 7.36249 -17.5955 27
      vertex 6.18034 -18.0211 -23
      vertex 7.36249 -17.5955 -23
    endloop
  endfacet
  facet normal 0.750112 -0.661311 0
    outer loop
      vertex 14.5794 -12.6909 27
      vertex 15.4103 -11.7485 -23
      vertex 15.4103 -11.7485 27
    endloop
  endfacet
  facet normal 0.750112 -0.661311 0
    outer loop
      vertex 15.4103 -11.7485 -23
      vertex 14.5794 -12.6909 27
      vertex 14.5794 -12.6909 -23
    endloop
  endfacet
  facet normal -0.156436 -0.987688 0
    outer loop
      vertex -3.74763 -18.6457 -23
      vertex -2.50666 -18.8423 27
      vertex -3.74763 -18.6457 27
    endloop
  endfacet
  facet normal -0.156436 -0.987688 -0
    outer loop
      vertex -2.50666 -18.8423 27
      vertex -3.74763 -18.6457 -23
      vertex -2.50666 -18.8423 -23
    endloop
  endfacet
  facet normal -0.707107 -0.707107 0
    outer loop
      vertex -13.6909 -13.5794 -23
      vertex -14.5794 -12.6909 27
      vertex -14.5794 -12.6909 -23
    endloop
  endfacet
  facet normal -0.707107 -0.707107 0
    outer loop
      vertex -14.5794 -12.6909 27
      vertex -13.6909 -13.5794 -23
      vertex -13.6909 -13.5794 27
    endloop
  endfacet
  facet normal -0.940881 -0.338738 0
    outer loop
      vertex -18.5955 -6.36249 -23
      vertex -19.0211 -5.18034 27
      vertex -19.0211 -5.18034 -23
    endloop
  endfacet
  facet normal -0.940881 -0.338738 0
    outer loop
      vertex -19.0211 -5.18034 27
      vertex -18.5955 -6.36249 -23
      vertex -18.5955 -6.36249 27
    endloop
  endfacet
  facet normal -0.827081 -0.562083 0
    outer loop
      vertex -16.1803 -10.7557 -23
      vertex -16.8866 -9.71654 27
      vertex -16.8866 -9.71654 -23
    endloop
  endfacet
  facet normal -0.827081 -0.562083 0
    outer loop
      vertex -16.8866 -9.71654 27
      vertex -16.1803 -10.7557 -23
      vertex -16.1803 -10.7557 27
    endloop
  endfacet
  facet normal 0.218142 -0.975917 0
    outer loop
      vertex 3.74763 -18.6457 -23
      vertex 4.9738 -18.3717 27
      vertex 3.74763 -18.6457 27
    endloop
  endfacet
  facet normal 0.218142 -0.975917 0
    outer loop
      vertex 4.9738 -18.3717 27
      vertex 3.74763 -18.6457 -23
      vertex 4.9738 -18.3717 -23
    endloop
  endfacet
  facet normal 0.562083 -0.827081 0
    outer loop
      vertex 10.7165 -15.8866 -23
      vertex 11.7557 -15.1803 27
      vertex 10.7165 -15.8866 27
    endloop
  endfacet
  facet normal 0.562083 -0.827081 0
    outer loop
      vertex 11.7557 -15.1803 27
      vertex 10.7165 -15.8866 -23
      vertex 11.7557 -15.1803 -23
    endloop
  endfacet
  facet normal 0.860742 -0.509042 0
    outer loop
      vertex 16.8866 -9.71654 27
      vertex 17.5261 -8.63507 -23
      vertex 17.5261 -8.63507 27
    endloop
  endfacet
  facet normal 0.860742 -0.509042 0
    outer loop
      vertex 17.5261 -8.63507 -23
      vertex 16.8866 -9.71654 27
      vertex 16.8866 -9.71654 -23
    endloop
  endfacet
  facet normal 0.917754 -0.397148 0
    outer loop
      vertex 18.0965 -7.51558 27
      vertex 18.5955 -6.36249 -23
      vertex 18.5955 -6.36249 27
    endloop
  endfacet
  facet normal 0.917754 -0.397148 0
    outer loop
      vertex 18.5955 -6.36249 -23
      vertex 18.0965 -7.51558 27
      vertex 18.0965 -7.51558 -23
    endloop
  endfacet
  facet normal -0.0314104 -0.999507 0
    outer loop
      vertex -1.25581 -18.9605 -23
      vertex 0 -19 27
      vertex -1.25581 -18.9605 27
    endloop
  endfacet
  facet normal -0.0314104 -0.999507 -0
    outer loop
      vertex 0 -19 27
      vertex -1.25581 -18.9605 -23
      vertex 0 -19 -23
    endloop
  endfacet
  facet normal -0.397148 -0.917754 0
    outer loop
      vertex -8.51558 -17.0965 -23
      vertex -7.36249 -17.5955 27
      vertex -8.51558 -17.0965 27
    endloop
  endfacet
  facet normal -0.397148 -0.917754 -0
    outer loop
      vertex -7.36249 -17.5955 27
      vertex -8.51558 -17.0965 -23
      vertex -7.36249 -17.5955 -23
    endloop
  endfacet
  facet normal -0.612908 -0.790154 0
    outer loop
      vertex -12.7485 -14.4103 -23
      vertex -11.7557 -15.1803 27
      vertex -12.7485 -14.4103 27
    endloop
  endfacet
  facet normal -0.612908 -0.790154 -0
    outer loop
      vertex -11.7557 -15.1803 27
      vertex -12.7485 -14.4103 -23
      vertex -11.7557 -15.1803 -23
    endloop
  endfacet
  facet normal -0.975917 -0.218144 0
    outer loop
      vertex -19.3717 -3.9738 -23
      vertex -19.6457 -2.74763 27
      vertex -19.6457 -2.74763 -23
    endloop
  endfacet
  facet normal -0.975917 -0.218144 0
    outer loop
      vertex -19.6457 -2.74763 27
      vertex -19.3717 -3.9738 -23
      vertex -19.3717 -3.9738 27
    endloop
  endfacet
  facet normal -0.987688 -0.156434 0
    outer loop
      vertex -19.6457 -2.74763 -23
      vertex -19.8423 -1.50666 27
      vertex -19.8423 -1.50666 -23
    endloop
  endfacet
  facet normal -0.987688 -0.156434 0
    outer loop
      vertex -19.8423 -1.50666 27
      vertex -19.6457 -2.74763 -23
      vertex -19.6457 -2.74763 27
    endloop
  endfacet
  facet normal -0.750112 -0.661311 0
    outer loop
      vertex -14.5794 -12.6909 -23
      vertex -15.4103 -11.7485 27
      vertex -15.4103 -11.7485 -23
    endloop
  endfacet
  facet normal -0.750112 -0.661311 0
    outer loop
      vertex -15.4103 -11.7485 27
      vertex -14.5794 -12.6909 -23
      vertex -14.5794 -12.6909 27
    endloop
  endfacet
  facet normal 0.156436 -0.987688 0
    outer loop
      vertex 2.50666 -18.8423 -23
      vertex 3.74763 -18.6457 27
      vertex 2.50666 -18.8423 27
    endloop
  endfacet
  facet normal 0.156436 -0.987688 0
    outer loop
      vertex 3.74763 -18.6457 27
      vertex 2.50666 -18.8423 -23
      vertex 3.74763 -18.6457 -23
    endloop
  endfacet
  facet normal 0.0314104 -0.999507 0
    outer loop
      vertex 0 -19 -23
      vertex 1.25581 -18.9605 27
      vertex 0 -19 27
    endloop
  endfacet
  facet normal 0.0314104 -0.999507 0
    outer loop
      vertex 1.25581 -18.9605 27
      vertex 0 -19 -23
      vertex 1.25581 -18.9605 -23
    endloop
  endfacet
  facet normal 0.940881 -0.338738 0
    outer loop
      vertex 18.5955 -6.36249 27
      vertex 19.0211 -5.18034 -23
      vertex 19.0211 -5.18034 27
    endloop
  endfacet
  facet normal 0.940881 -0.338738 0
    outer loop
      vertex 19.0211 -5.18034 -23
      vertex 18.5955 -6.36249 27
      vertex 18.5955 -6.36249 -23
    endloop
  endfacet
  facet normal 0.0941082 -0.995562 0
    outer loop
      vertex 1.25581 -18.9605 -23
      vertex 2.50666 -18.8423 27
      vertex 1.25581 -18.9605 27
    endloop
  endfacet
  facet normal 0.0941082 -0.995562 0
    outer loop
      vertex 2.50666 -18.8423 27
      vertex 1.25581 -18.9605 -23
      vertex 2.50666 -18.8423 -23
    endloop
  endfacet
  facet normal 0.278992 -0.960293 0
    outer loop
      vertex 4.9738 -18.3717 -23
      vertex 6.18034 -18.0211 27
      vertex 4.9738 -18.3717 27
    endloop
  endfacet
  facet normal 0.278992 -0.960293 0
    outer loop
      vertex 6.18034 -18.0211 27
      vertex 4.9738 -18.3717 -23
      vertex 6.18034 -18.0211 -23
    endloop
  endfacet
  facet normal 0.707107 -0.707107 0
    outer loop
      vertex 13.6909 -13.5794 27
      vertex 14.5794 -12.6909 -23
      vertex 14.5794 -12.6909 27
    endloop
  endfacet
  facet normal 0.707107 -0.707107 0
    outer loop
      vertex 14.5794 -12.6909 -23
      vertex 13.6909 -13.5794 27
      vertex 13.6909 -13.5794 -23
    endloop
  endfacet
  facet normal 0.612908 -0.790154 0
    outer loop
      vertex 11.7557 -15.1803 -23
      vertex 12.7485 -14.4103 27
      vertex 11.7557 -15.1803 27
    endloop
  endfacet
  facet normal 0.612908 -0.790154 0
    outer loop
      vertex 12.7485 -14.4103 27
      vertex 11.7557 -15.1803 -23
      vertex 12.7485 -14.4103 -23
    endloop
  endfacet
  facet normal 0.661311 -0.750112 0
    outer loop
      vertex 12.7485 -14.4103 -23
      vertex 13.6909 -13.5794 27
      vertex 12.7485 -14.4103 27
    endloop
  endfacet
  facet normal 0.661311 -0.750112 0
    outer loop
      vertex 13.6909 -13.5794 27
      vertex 12.7485 -14.4103 -23
      vertex 13.6909 -13.5794 -23
    endloop
  endfacet
  facet normal 0.397148 -0.917754 0
    outer loop
      vertex 7.36249 -17.5955 -23
      vertex 8.51558 -17.0965 27
      vertex 7.36249 -17.5955 27
    endloop
  endfacet
  facet normal 0.397148 -0.917754 0
    outer loop
      vertex 8.51558 -17.0965 27
      vertex 7.36249 -17.5955 -23
      vertex 8.51558 -17.0965 -23
    endloop
  endfacet
  facet normal 0.509042 -0.860741 0
    outer loop
      vertex 9.63507 -16.5261 -23
      vertex 10.7165 -15.8866 27
      vertex 9.63507 -16.5261 27
    endloop
  endfacet
  facet normal 0.509042 -0.860741 0
    outer loop
      vertex 10.7165 -15.8866 27
      vertex 9.63507 -16.5261 -23
      vertex 10.7165 -15.8866 -23
    endloop
  endfacet
  facet normal 0.45399 -0.891007 0
    outer loop
      vertex 8.51558 -17.0965 -23
      vertex 9.63507 -16.5261 27
      vertex 8.51558 -17.0965 27
    endloop
  endfacet
  facet normal 0.45399 -0.891007 0
    outer loop
      vertex 9.63507 -16.5261 27
      vertex 8.51558 -17.0965 -23
      vertex 9.63507 -16.5261 -23
    endloop
  endfacet
  facet normal 0.891007 -0.45399 0
    outer loop
      vertex 17.5261 -8.63507 27
      vertex 18.0965 -7.51558 -23
      vertex 18.0965 -7.51558 27
    endloop
  endfacet
  facet normal 0.891007 -0.45399 0
    outer loop
      vertex 18.0965 -7.51558 -23
      vertex 17.5261 -8.63507 27
      vertex 17.5261 -8.63507 -23
    endloop
  endfacet
  facet normal 0.827081 -0.562083 0
    outer loop
      vertex 16.1803 -10.7557 27
      vertex 16.8866 -9.71654 -23
      vertex 16.8866 -9.71654 27
    endloop
  endfacet
  facet normal 0.827081 -0.562083 0
    outer loop
      vertex 16.8866 -9.71654 -23
      vertex 16.1803 -10.7557 27
      vertex 16.1803 -10.7557 -23
    endloop
  endfacet
  facet normal 0.790154 -0.612908 0
    outer loop
      vertex 15.4103 -11.7485 27
      vertex 16.1803 -10.7557 -23
      vertex 16.1803 -10.7557 27
    endloop
  endfacet
  facet normal 0.790154 -0.612908 0
    outer loop
      vertex 16.1803 -10.7557 -23
      vertex 15.4103 -11.7485 27
      vertex 15.4103 -11.7485 -23
    endloop
  endfacet
  facet normal -0.218142 -0.975917 0
    outer loop
      vertex -4.9738 -18.3717 -23
      vertex -3.74763 -18.6457 27
      vertex -4.9738 -18.3717 27
    endloop
  endfacet
  facet normal -0.218142 -0.975917 -0
    outer loop
      vertex -3.74763 -18.6457 27
      vertex -4.9738 -18.3717 -23
      vertex -3.74763 -18.6457 -23
    endloop
  endfacet
  facet normal -0.338738 -0.940881 0
    outer loop
      vertex -7.36249 -17.5955 -23
      vertex -6.18034 -18.0211 27
      vertex -7.36249 -17.5955 27
    endloop
  endfacet
  facet normal -0.338738 -0.940881 -0
    outer loop
      vertex -6.18034 -18.0211 27
      vertex -7.36249 -17.5955 -23
      vertex -6.18034 -18.0211 -23
    endloop
  endfacet
  facet normal -0.0941082 -0.995562 0
    outer loop
      vertex -2.50666 -18.8423 -23
      vertex -1.25581 -18.9605 27
      vertex -2.50666 -18.8423 27
    endloop
  endfacet
  facet normal -0.0941082 -0.995562 -0
    outer loop
      vertex -1.25581 -18.9605 27
      vertex -2.50666 -18.8423 -23
      vertex -1.25581 -18.9605 -23
    endloop
  endfacet
  facet normal -0.278992 -0.960293 0
    outer loop
      vertex -6.18034 -18.0211 -23
      vertex -4.9738 -18.3717 27
      vertex -6.18034 -18.0211 27
    endloop
  endfacet
  facet normal -0.278992 -0.960293 -0
    outer loop
      vertex -4.9738 -18.3717 27
      vertex -6.18034 -18.0211 -23
      vertex -4.9738 -18.3717 -23
    endloop
  endfacet
  facet normal -0.509042 -0.860741 0
    outer loop
      vertex -10.7165 -15.8866 -23
      vertex -9.63507 -16.5261 27
      vertex -10.7165 -15.8866 27
    endloop
  endfacet
  facet normal -0.509042 -0.860741 -0
    outer loop
      vertex -9.63507 -16.5261 27
      vertex -10.7165 -15.8866 -23
      vertex -9.63507 -16.5261 -23
    endloop
  endfacet
  facet normal -0.562083 -0.827081 0
    outer loop
      vertex -11.7557 -15.1803 -23
      vertex -10.7165 -15.8866 27
      vertex -11.7557 -15.1803 27
    endloop
  endfacet
  facet normal -0.562083 -0.827081 -0
    outer loop
      vertex -10.7165 -15.8866 27
      vertex -11.7557 -15.1803 -23
      vertex -10.7165 -15.8866 -23
    endloop
  endfacet
  facet normal -0.45399 -0.891007 0
    outer loop
      vertex -9.63507 -16.5261 -23
      vertex -8.51558 -17.0965 27
      vertex -9.63507 -16.5261 27
    endloop
  endfacet
  facet normal -0.45399 -0.891007 -0
    outer loop
      vertex -8.51558 -17.0965 27
      vertex -9.63507 -16.5261 -23
      vertex -8.51558 -17.0965 -23
    endloop
  endfacet
  facet normal -0.661311 -0.750112 0
    outer loop
      vertex -13.6909 -13.5794 -23
      vertex -12.7485 -14.4103 27
      vertex -13.6909 -13.5794 27
    endloop
  endfacet
  facet normal -0.661311 -0.750112 -0
    outer loop
      vertex -12.7485 -14.4103 27
      vertex -13.6909 -13.5794 -23
      vertex -12.7485 -14.4103 -23
    endloop
  endfacet
  facet normal -0.960294 -0.278991 0
    outer loop
      vertex -19.0211 -5.18034 -23
      vertex -19.3717 -3.9738 27
      vertex -19.3717 -3.9738 -23
    endloop
  endfacet
  facet normal -0.960294 -0.278991 0
    outer loop
      vertex -19.3717 -3.9738 27
      vertex -19.0211 -5.18034 -23
      vertex -19.0211 -5.18034 27
    endloop
  endfacet
  facet normal -0.999507 -0.0314114 0
    outer loop
      vertex -19.9605 -0.25581 -23
      vertex -19.9969 0.9 27
      vertex -19.9969 0.9 -23
    endloop
  endfacet
  facet normal -0.999507 -0.0314114 0
    outer loop
      vertex -19.9969 0.9 27
      vertex -19.9605 -0.25581 -23
      vertex -19.9605 -0.25581 27
    endloop
  endfacet
  facet normal 0 0 1
    outer loop
      vertex -19.9605 -0.25581 -23
      vertex -19.9969 0.9 -23
      vertex -20 1 -23
    endloop
  endfacet
  facet normal 0 0 -1
    outer loop
      vertex 7.36249 -17.5955 -23
      vertex 8 -12 -23
      vertex 8.51558 -17.0965 -23
    endloop
  endfacet
  facet normal 0 0 -1
    outer loop
      vertex 6.18034 -18.0211 -23
      vertex 8 -12 -23
      vertex 7.36249 -17.5955 -23
    endloop
  endfacet
  facet normal 0 0 -1
    outer loop
      vertex 4.9738 -18.3717 -23
      vertex 8 -12 -23
      vertex 6.18034 -18.0211 -23
    endloop
  endfacet
  facet normal 0 0 -1
    outer loop
      vertex 3.74763 -18.6457 -23
      vertex 8 -12 -23
      vertex 4.9738 -18.3717 -23
    endloop
  endfacet
  facet normal 0 0 -1
    outer loop
      vertex -2 -12 -23
      vertex 3.74763 -18.6457 -23
      vertex 2.50666 -18.8423 -23
    endloop
  endfacet
  facet normal 0 0 -1
    outer loop
      vertex -2 -12 -23
      vertex 2.50666 -18.8423 -23
      vertex 1.25581 -18.9605 -23
    endloop
  endfacet
  facet normal 0 0 -1
    outer loop
      vertex -2 -12 -23
      vertex 1.25581 -18.9605 -23
      vertex 0 -19 -23
    endloop
  endfacet
  facet normal 0 0 -1
    outer loop
      vertex -2 -12 -23
      vertex 0 -19 -23
      vertex -1.25581 -18.9605 -23
    endloop
  endfacet
  facet normal 0 0 -1
    outer loop
      vertex 3.74763 -18.6457 -23
      vertex -2 -12 -23
      vertex 8 -12 -23
    endloop
  endfacet
  facet normal 0 0 -1
    outer loop
      vertex -3.74763 -18.6457 -23
      vertex -2 -12 -23
      vertex -2.50666 -18.8423 -23
    endloop
  endfacet
  facet normal 0 0 -1
    outer loop
      vertex -2.50666 -18.8423 -23
      vertex -2 -12 -23
      vertex -1.25581 -18.9605 -23
    endloop
  endfacet
  facet normal 0 0 -1
    outer loop
      vertex 8 -5.10703e-015 -23
      vertex 19.9605 -0.25581 -23
      vertex 19.8423 -1.50666 -23
    endloop
  endfacet
  facet normal 0 0 -1
    outer loop
      vertex 8 -5.10703e-015 -23
      vertex 19.8423 -1.50666 -23
      vertex 19.6457 -2.74763 -23
    endloop
  endfacet
  facet normal 0 0 -1
    outer loop
      vertex 8 -5.10703e-015 -23
      vertex 19.6457 -2.74763 -23
      vertex 19.3717 -3.9738 -23
    endloop
  endfacet
  facet normal 0 0 -1
    outer loop
      vertex 8 -5.10703e-015 -23
      vertex 19.3717 -3.9738 -23
      vertex 19.0211 -5.18034 -23
    endloop
  endfacet
  facet normal 0 0 -1
    outer loop
      vertex 8 -5.10703e-015 -23
      vertex 19.0211 -5.18034 -23
      vertex 18.5955 -6.36249 -23
    endloop
  endfacet
  facet normal 0 0 -1
    outer loop
      vertex 8 -5.10703e-015 -23
      vertex 18.5955 -6.36249 -23
      vertex 18.0965 -7.51558 -23
    endloop
  endfacet
  facet normal 0 0 -1
    outer loop
      vertex 8 -5.10703e-015 -23
      vertex 18.0965 -7.51558 -23
      vertex 17.5261 -8.63507 -23
    endloop
  endfacet
  facet normal 0 0 -1
    outer loop
      vertex 8 -5.10703e-015 -23
      vertex 17.5261 -8.63507 -23
      vertex 16.8866 -9.71654 -23
    endloop
  endfacet
  facet normal 0 0 -1
    outer loop
      vertex 8 -12 -23
      vertex 16.8866 -9.71654 -23
      vertex 16.1803 -10.7557 -23
    endloop
  endfacet
  facet normal 0 0 -1
    outer loop
      vertex 8 -12 -23
      vertex 16.1803 -10.7557 -23
      vertex 15.4103 -11.7485 -23
    endloop
  endfacet
  facet normal 0 0 -1
    outer loop
      vertex 8 -12 -23
      vertex 15.4103 -11.7485 -23
      vertex 14.5794 -12.6909 -23
    endloop
  endfacet
  facet normal 0 0 -1
    outer loop
      vertex 8 -12 -23
      vertex 14.5794 -12.6909 -23
      vertex 13.6909 -13.5794 -23
    endloop
  endfacet
  facet normal 0 0 -1
    outer loop
      vertex 8 -12 -23
      vertex 13.6909 -13.5794 -23
      vertex 12.7485 -14.4103 -23
    endloop
  endfacet
  facet normal 0 0 -1
    outer loop
      vertex 8 -12 -23
      vertex 12.7485 -14.4103 -23
      vertex 11.7557 -15.1803 -23
    endloop
  endfacet
  facet normal 0 0 -1
    outer loop
      vertex 8 -12 -23
      vertex 11.7557 -15.1803 -23
      vertex 10.7165 -15.8866 -23
    endloop
  endfacet
  facet normal 0 0 -1
    outer loop
      vertex 8 -12 -23
      vertex 10.7165 -15.8866 -23
      vertex 9.63507 -16.5261 -23
    endloop
  endfacet
  facet normal 0 0 -1
    outer loop
      vertex 8 -12 -23
      vertex 9.63507 -16.5261 -23
      vertex 8.51558 -17.0965 -23
    endloop
  endfacet
  facet normal -0 0 -1
    outer loop
      vertex 16.8866 -9.71654 -23
      vertex 8 -12 -23
      vertex 8 -5.10703e-015 -23
    endloop
  endfacet
  facet normal 0 0 -1
    outer loop
      vertex 19.9605 -0.25581 -23
      vertex 8 -5.10703e-015 -23
      vertex 20 1 -23
    endloop
  endfacet
  facet normal 0 0 -1
    outer loop
      vertex -2 -5.10703e-015 -23
      vertex 20 1 -23
      vertex 8 -5.10703e-015 -23
    endloop
  endfacet
  facet normal 0 0 -1
    outer loop
      vertex -4.9738 -18.3717 -23
      vertex -2 -12 -23
      vertex -3.74763 -18.6457 -23
    endloop
  endfacet
  facet normal 0 0 -1
    outer loop
      vertex -6.18034 -18.0211 -23
      vertex -2 -12 -23
      vertex -4.9738 -18.3717 -23
    endloop
  endfacet
  facet normal 0 0 -1
    outer loop
      vertex -7.36249 -17.5955 -23
      vertex -2 -12 -23
      vertex -6.18034 -18.0211 -23
    endloop
  endfacet
  facet normal 0 0 -1
    outer loop
      vertex -8.51558 -17.0965 -23
      vertex -2 -12 -23
      vertex -7.36249 -17.5955 -23
    endloop
  endfacet
  facet normal 0 0 -1
    outer loop
      vertex -9.63507 -16.5261 -23
      vertex -2 -12 -23
      vertex -8.51558 -17.0965 -23
    endloop
  endfacet
  facet normal 0 0 -1
    outer loop
      vertex -10.7165 -15.8866 -23
      vertex -2 -12 -23
      vertex -9.63507 -16.5261 -23
    endloop
  endfacet
  facet normal 0 0 -1
    outer loop
      vertex -11.7557 -15.1803 -23
      vertex -2 -12 -23
      vertex -10.7165 -15.8866 -23
    endloop
  endfacet
  facet normal 0 0 -1
    outer loop
      vertex -12.7485 -14.4103 -23
      vertex -2 -12 -23
      vertex -11.7557 -15.1803 -23
    endloop
  endfacet
  facet normal 0 0 -1
    outer loop
      vertex -13.6909 -13.5794 -23
      vertex -2 -12 -23
      vertex -12.7485 -14.4103 -23
    endloop
  endfacet
  facet normal 0 0 -1
    outer loop
      vertex -14.5794 -12.6909 -23
      vertex -2 -12 -23
      vertex -13.6909 -13.5794 -23
    endloop
  endfacet
  facet normal 0 0 -1
    outer loop
      vertex -15.4103 -11.7485 -23
      vertex -2 -12 -23
      vertex -14.5794 -12.6909 -23
    endloop
  endfacet
  facet normal 0 0 -1
    outer loop
      vertex -2 -12 -23
      vertex -15.4103 -11.7485 -23
      vertex -2 -5.10703e-015 -23
    endloop
  endfacet
  facet normal 0 0 -1
    outer loop
      vertex -16.1803 -10.7557 -23
      vertex -2 -5.10703e-015 -23
      vertex -15.4103 -11.7485 -23
    endloop
  endfacet
  facet normal 0 0 -1
    outer loop
      vertex -16.8866 -9.71654 -23
      vertex -2 -5.10703e-015 -23
      vertex -16.1803 -10.7557 -23
    endloop
  endfacet
  facet normal 0 0 -1
    outer loop
      vertex -17.5261 -8.63507 -23
      vertex -2 -5.10703e-015 -23
      vertex -16.8866 -9.71654 -23
    endloop
  endfacet
  facet normal 0 0 -1
    outer loop
      vertex -18.0965 -7.51558 -23
      vertex -2 -5.10703e-015 -23
      vertex -17.5261 -8.63507 -23
    endloop
  endfacet
  facet normal 0 0 -1
    outer loop
      vertex -18.5955 -6.36249 -23
      vertex -2 -5.10703e-015 -23
      vertex -18.0965 -7.51558 -23
    endloop
  endfacet
  facet normal 0 0 -1
    outer loop
      vertex -19.0211 -5.18034 -23
      vertex -2 -5.10703e-015 -23
      vertex -18.5955 -6.36249 -23
    endloop
  endfacet
  facet normal 0 0 -1
    outer loop
      vertex -19.3717 -3.9738 -23
      vertex -2 -5.10703e-015 -23
      vertex -19.0211 -5.18034 -23
    endloop
  endfacet
  facet normal 0 0 -1
    outer loop
      vertex -19.6457 -2.74763 -23
      vertex -2 -5.10703e-015 -23
      vertex -19.3717 -3.9738 -23
    endloop
  endfacet
  facet normal 0 0 -1
    outer loop
      vertex -19.8423 -1.50666 -23
      vertex -2 -5.10703e-015 -23
      vertex -19.6457 -2.74763 -23
    endloop
  endfacet
  facet normal 0 0 -1
    outer loop
      vertex -19.9605 -0.25581 -23
      vertex -2 -5.10703e-015 -23
      vertex -19.8423 -1.50666 -23
    endloop
  endfacet
  facet normal 0 0 -1
    outer loop
      vertex -20 1 -23
      vertex -2 -5.10703e-015 -23
      vertex -19.9605 -0.25581 -23
    endloop
  endfacet
  facet normal 0 0 -1
    outer loop
      vertex -2 -5.10703e-015 -23
      vertex -20 1 -23
      vertex 20 1 -23
    endloop
  endfacet
  facet normal -0.995562 -0.0941082 0
    outer loop
      vertex -19.8423 -1.50666 -23
      vertex -19.9605 -0.25581 27
      vertex -19.9605 -0.25581 -23
    endloop
  endfacet
  facet normal -0.995562 -0.0941082 0
    outer loop
      vertex -19.9605 -0.25581 27
      vertex -19.8423 -1.50666 -23
      vertex -19.8423 -1.50666 27
    endloop
  endfacet
  facet normal -0.917754 -0.397148 0
    outer loop
      vertex -18.0965 -7.51558 -23
      vertex -18.5955 -6.36249 27
      vertex -18.5955 -6.36249 -23
    endloop
  endfacet
  facet normal -0.917754 -0.397148 0
    outer loop
      vertex -18.5955 -6.36249 27
      vertex -18.0965 -7.51558 -23
      vertex -18.0965 -7.51558 27
    endloop
  endfacet
  facet normal -0.860742 -0.509042 0
    outer loop
      vertex -16.8866 -9.71654 -23
      vertex -17.5261 -8.63507 27
      vertex -17.5261 -8.63507 -23
    endloop
  endfacet
  facet normal -0.860742 -0.509042 0
    outer loop
      vertex -17.5261 -8.63507 27
      vertex -16.8866 -9.71654 -23
      vertex -16.8866 -9.71654 27
    endloop
  endfacet
  facet normal -0.891007 -0.45399 0
    outer loop
      vertex -17.5261 -8.63507 -23
      vertex -18.0965 -7.51558 27
      vertex -18.0965 -7.51558 -23
    endloop
  endfacet
  facet normal -0.891007 -0.45399 0
    outer loop
      vertex -18.0965 -7.51558 27
      vertex -17.5261 -8.63507 -23
      vertex -17.5261 -8.63507 27
    endloop
  endfacet
  facet normal -0.790154 -0.612908 0
    outer loop
      vertex -15.4103 -11.7485 -23
      vertex -16.1803 -10.7557 27
      vertex -16.1803 -10.7557 -23
    endloop
  endfacet
  facet normal -0.790154 -0.612908 0
    outer loop
      vertex -16.1803 -10.7557 27
      vertex -15.4103 -11.7485 -23
      vertex -15.4103 -11.7485 27
    endloop
  endfacet
  facet normal -0 0 1
    outer loop
      vertex -19.9605 -0.25581 27
      vertex -19 -2 27
      vertex -19 0.9 27
    endloop
  endfacet
  facet normal 0 0 1
    outer loop
      vertex -19 -2 27
      vertex -19.3717 -3.9738 27
      vertex -19.0211 -5.18034 27
    endloop
  endfacet
  facet normal 0 0 1
    outer loop
      vertex -19 -2 27
      vertex -19.6457 -2.74763 27
      vertex -19.3717 -3.9738 27
    endloop
  endfacet
  facet normal 0 0 1
    outer loop
      vertex -19 -2 27
      vertex -19.8423 -1.50666 27
      vertex -19.6457 -2.74763 27
    endloop
  endfacet
  facet normal 0 0 1
    outer loop
      vertex -19 -2 27
      vertex -19.9605 -0.25581 27
      vertex -19.8423 -1.50666 27
    endloop
  endfacet
  facet normal 0 -0 1
    outer loop
      vertex -19.9605 -0.25581 27
      vertex -19 0.9 27
      vertex -19.9969 0.9 27
    endloop
  endfacet
  facet normal -0 0 1
    outer loop
      vertex 19 0.9 27
      vertex 19.9605 -0.25581 27
      vertex 19.9969 0.9 27
    endloop
  endfacet
  facet normal 0 0 1
    outer loop
      vertex 19 -2 27
      vertex 19.9605 -0.25581 27
      vertex 19 0.9 27
    endloop
  endfacet
  facet normal 0 0 1
    outer loop
      vertex 19.8423 -1.50666 27
      vertex 19 -2 27
      vertex 19.6457 -2.74763 27
    endloop
  endfacet
  facet normal -0 0 1
    outer loop
      vertex 18.1723 -2.46655 27
      vertex 19.6457 -2.74763 27
      vertex 19 -2 27
    endloop
  endfacet
  facet normal 0 0 1
    outer loop
      vertex 19.9605 -0.25581 27
      vertex 19 -2 27
      vertex 19.8423 -1.50666 27
    endloop
  endfacet
  facet normal 0 0 1
    outer loop
      vertex 19.6457 -2.74763 27
      vertex 18.1723 -2.46655 27
      vertex 19.3717 -3.9738 27
    endloop
  endfacet
  facet normal 0 0 1
    outer loop
      vertex 19.3717 -3.9738 27
      vertex 17.9188 -3.60076 27
      vertex 19.0211 -5.18034 27
    endloop
  endfacet
  facet normal 0 0 1
    outer loop
      vertex 18.1723 -2.46655 27
      vertex 19 -2 27
      vertex 18.2462 -2 27
    endloop
  endfacet
  facet normal 0 0 1
    outer loop
      vertex 19.3717 -3.9738 27
      vertex 18.1723 -2.46655 27
      vertex 17.9188 -3.60076 27
    endloop
  endfacet
  facet normal -0 0 1
    outer loop
      vertex 17.5945 -4.71681 27
      vertex 19.0211 -5.18034 27
      vertex 17.9188 -3.60076 27
    endloop
  endfacet
  facet normal 0 0 1
    outer loop
      vertex 19.0211 -5.18034 27
      vertex 17.5945 -4.71681 27
      vertex 18.5955 -6.36249 27
    endloop
  endfacet
  facet normal -0 0 1
    outer loop
      vertex 17.2009 -5.8103 27
      vertex 18.5955 -6.36249 27
      vertex 17.5945 -4.71681 27
    endloop
  endfacet
  facet normal 0 0 1
    outer loop
      vertex 18.5955 -6.36249 27
      vertex 17.2009 -5.8103 27
      vertex 18.0965 -7.51558 27
    endloop
  endfacet
  facet normal -0 0 1
    outer loop
      vertex 16.7393 -6.87692 27
      vertex 18.0965 -7.51558 27
      vertex 17.2009 -5.8103 27
    endloop
  endfacet
  facet normal 0 0 1
    outer loop
      vertex 18.0965 -7.51558 27
      vertex 16.7393 -6.87692 27
      vertex 17.5261 -8.63507 27
    endloop
  endfacet
  facet normal -0 0 1
    outer loop
      vertex 16.2117 -7.91244 27
      vertex 17.5261 -8.63507 27
      vertex 16.7393 -6.87692 27
    endloop
  endfacet
  facet normal 0 0 1
    outer loop
      vertex 17.5261 -8.63507 27
      vertex 16.2117 -7.91244 27
      vertex 16.8866 -9.71654 27
    endloop
  endfacet
  facet normal -0 0 1
    outer loop
      vertex 15.6201 -8.9128 27
      vertex 16.8866 -9.71654 27
      vertex 16.2117 -7.91244 27
    endloop
  endfacet
  facet normal 0 0 1
    outer loop
      vertex 16.8866 -9.71654 27
      vertex 15.6201 -8.9128 27
      vertex 16.1803 -10.7557 27
    endloop
  endfacet
  facet normal -0 0 1
    outer loop
      vertex 14.9668 -9.87403 27
      vertex 16.1803 -10.7557 27
      vertex 15.6201 -8.9128 27
    endloop
  endfacet
  facet normal 0 0 1
    outer loop
      vertex 16.1803 -10.7557 27
      vertex 14.9668 -9.87403 27
      vertex 15.4103 -11.7485 27
    endloop
  endfacet
  facet normal -0 0 1
    outer loop
      vertex 14.2545 -10.7923 27
      vertex 15.4103 -11.7485 27
      vertex 14.9668 -9.87403 27
    endloop
  endfacet
  facet normal 0 0 1
    outer loop
      vertex 15.4103 -11.7485 27
      vertex 14.2545 -10.7923 27
      vertex 14.5794 -12.6909 27
    endloop
  endfacet
  facet normal -0 0 1
    outer loop
      vertex 13.4859 -11.6641 27
      vertex 14.5794 -12.6909 27
      vertex 14.2545 -10.7923 27
    endloop
  endfacet
  facet normal 0 0 1
    outer loop
      vertex 14.5794 -12.6909 27
      vertex 13.4859 -11.6641 27
      vertex 13.6909 -13.5794 27
    endloop
  endfacet
  facet normal -0 0 1
    outer loop
      vertex 12.6641 -12.4859 27
      vertex 13.6909 -13.5794 27
      vertex 13.4859 -11.6641 27
    endloop
  endfacet
  facet normal 0 0 1
    outer loop
      vertex 13.6909 -13.5794 27
      vertex 12.6641 -12.4859 27
      vertex 12.7485 -14.4103 27
    endloop
  endfacet
  facet normal -0 0 1
    outer loop
      vertex 11.7923 -13.2545 27
      vertex 12.7485 -14.4103 27
      vertex 12.6641 -12.4859 27
    endloop
  endfacet
  facet normal 0 0 1
    outer loop
      vertex 11.7923 -13.2545 27
      vertex 11.7557 -15.1803 27
      vertex 12.7485 -14.4103 27
    endloop
  endfacet
  facet normal -0 0 1
    outer loop
      vertex 10.874 -13.9668 27
      vertex 11.7557 -15.1803 27
      vertex 11.7923 -13.2545 27
    endloop
  endfacet
  facet normal 0 0 1
    outer loop
      vertex 10.874 -13.9668 27
      vertex 10.7165 -15.8866 27
      vertex 11.7557 -15.1803 27
    endloop
  endfacet
  facet normal -0 0 1
    outer loop
      vertex 9.9128 -14.6201 27
      vertex 10.7165 -15.8866 27
      vertex 10.874 -13.9668 27
    endloop
  endfacet
  facet normal 0 0 1
    outer loop
      vertex 9.9128 -14.6201 27
      vertex 9.63507 -16.5261 27
      vertex 10.7165 -15.8866 27
    endloop
  endfacet
  facet normal -0 0 1
    outer loop
      vertex 8.91244 -15.2117 27
      vertex 9.63507 -16.5261 27
      vertex 9.9128 -14.6201 27
    endloop
  endfacet
  facet normal 0 0 1
    outer loop
      vertex 8.91244 -15.2117 27
      vertex 8.51558 -17.0965 27
      vertex 9.63507 -16.5261 27
    endloop
  endfacet
  facet normal -0 0 1
    outer loop
      vertex 7.87692 -15.7393 27
      vertex 8.51558 -17.0965 27
      vertex 8.91244 -15.2117 27
    endloop
  endfacet
  facet normal 0 0 1
    outer loop
      vertex 7.87692 -15.7393 27
      vertex 7.36249 -17.5955 27
      vertex 8.51558 -17.0965 27
    endloop
  endfacet
  facet normal -0 0 1
    outer loop
      vertex 6.8103 -16.2009 27
      vertex 7.36249 -17.5955 27
      vertex 7.87692 -15.7393 27
    endloop
  endfacet
  facet normal 0 0 1
    outer loop
      vertex 6.8103 -16.2009 27
      vertex 6.18034 -18.0211 27
      vertex 7.36249 -17.5955 27
    endloop
  endfacet
  facet normal -0 0 1
    outer loop
      vertex 5.71681 -16.5945 27
      vertex 6.18034 -18.0211 27
      vertex 6.8103 -16.2009 27
    endloop
  endfacet
  facet normal 0 0 1
    outer loop
      vertex 5.71681 -16.5945 27
      vertex 4.9738 -18.3717 27
      vertex 6.18034 -18.0211 27
    endloop
  endfacet
  facet normal -0 0 1
    outer loop
      vertex 4.60076 -16.9188 27
      vertex 4.9738 -18.3717 27
      vertex 5.71681 -16.5945 27
    endloop
  endfacet
  facet normal 0 0 1
    outer loop
      vertex 4.60076 -16.9188 27
      vertex 3.74763 -18.6457 27
      vertex 4.9738 -18.3717 27
    endloop
  endfacet
  facet normal -0 0 1
    outer loop
      vertex 3.46655 -17.1723 27
      vertex 3.74763 -18.6457 27
      vertex 4.60076 -16.9188 27
    endloop
  endfacet
  facet normal 0 0 1
    outer loop
      vertex 3.46655 -17.1723 27
      vertex 2.50666 -18.8423 27
      vertex 3.74763 -18.6457 27
    endloop
  endfacet
  facet normal -0 0 1
    outer loop
      vertex 2.31866 -17.3541 27
      vertex 2.50666 -18.8423 27
      vertex 3.46655 -17.1723 27
    endloop
  endfacet
  facet normal 0 0 1
    outer loop
      vertex 2.31866 -17.3541 27
      vertex 1.25581 -18.9605 27
      vertex 2.50666 -18.8423 27
    endloop
  endfacet
  facet normal -0 0 1
    outer loop
      vertex 1.16162 -17.4635 27
      vertex 1.25581 -18.9605 27
      vertex 2.31866 -17.3541 27
    endloop
  endfacet
  facet normal -0 0 1
    outer loop
      vertex 0 -17.5 27
      vertex 1.25581 -18.9605 27
      vertex 1.16162 -17.4635 27
    endloop
  endfacet
  facet normal 0 0 1
    outer loop
      vertex 0 -17.5 27
      vertex 0 -19 27
      vertex 1.25581 -18.9605 27
    endloop
  endfacet
  facet normal 0 0 1
    outer loop
      vertex -1.16162 -17.4635 27
      vertex 0 -19 27
      vertex 0 -17.5 27
    endloop
  endfacet
  facet normal 0 0 1
    outer loop
      vertex -1.16162 -17.4635 27
      vertex -1.25581 -18.9605 27
      vertex 0 -19 27
    endloop
  endfacet
  facet normal 0 0 1
    outer loop
      vertex -2.31866 -17.3541 27
      vertex -1.25581 -18.9605 27
      vertex -1.16162 -17.4635 27
    endloop
  endfacet
  facet normal 0 0 1
    outer loop
      vertex -2.31866 -17.3541 27
      vertex -2.50666 -18.8423 27
      vertex -1.25581 -18.9605 27
    endloop
  endfacet
  facet normal 0 0 1
    outer loop
      vertex -3.46655 -17.1723 27
      vertex -2.50666 -18.8423 27
      vertex -2.31866 -17.3541 27
    endloop
  endfacet
  facet normal 0 0 1
    outer loop
      vertex -3.46655 -17.1723 27
      vertex -3.74763 -18.6457 27
      vertex -2.50666 -18.8423 27
    endloop
  endfacet
  facet normal 0 0 1
    outer loop
      vertex -4.60076 -16.9188 27
      vertex -3.74763 -18.6457 27
      vertex -3.46655 -17.1723 27
    endloop
  endfacet
  facet normal 0 0 1
    outer loop
      vertex -4.60076 -16.9188 27
      vertex -4.9738 -18.3717 27
      vertex -3.74763 -18.6457 27
    endloop
  endfacet
  facet normal 0 0 1
    outer loop
      vertex -5.71681 -16.5945 27
      vertex -4.9738 -18.3717 27
      vertex -4.60076 -16.9188 27
    endloop
  endfacet
  facet normal 0 0 1
    outer loop
      vertex -5.71681 -16.5945 27
      vertex -6.18034 -18.0211 27
      vertex -4.9738 -18.3717 27
    endloop
  endfacet
  facet normal 0 0 1
    outer loop
      vertex -6.8103 -16.2009 27
      vertex -6.18034 -18.0211 27
      vertex -5.71681 -16.5945 27
    endloop
  endfacet
  facet normal 0 0 1
    outer loop
      vertex -6.8103 -16.2009 27
      vertex -7.36249 -17.5955 27
      vertex -6.18034 -18.0211 27
    endloop
  endfacet
  facet normal 0 0 1
    outer loop
      vertex -7.87692 -15.7393 27
      vertex -7.36249 -17.5955 27
      vertex -6.8103 -16.2009 27
    endloop
  endfacet
  facet normal 0 0 1
    outer loop
      vertex -7.87692 -15.7393 27
      vertex -8.51558 -17.0965 27
      vertex -7.36249 -17.5955 27
    endloop
  endfacet
  facet normal 0 0 1
    outer loop
      vertex -8.91244 -15.2117 27
      vertex -8.51558 -17.0965 27
      vertex -7.87692 -15.7393 27
    endloop
  endfacet
  facet normal 0 0 1
    outer loop
      vertex -8.91244 -15.2117 27
      vertex -9.63507 -16.5261 27
      vertex -8.51558 -17.0965 27
    endloop
  endfacet
  facet normal 0 0 1
    outer loop
      vertex -9.9128 -14.6201 27
      vertex -9.63507 -16.5261 27
      vertex -8.91244 -15.2117 27
    endloop
  endfacet
  facet normal 0 0 1
    outer loop
      vertex -9.9128 -14.6201 27
      vertex -10.7165 -15.8866 27
      vertex -9.63507 -16.5261 27
    endloop
  endfacet
  facet normal 0 0 1
    outer loop
      vertex -10.874 -13.9668 27
      vertex -10.7165 -15.8866 27
      vertex -9.9128 -14.6201 27
    endloop
  endfacet
  facet normal 0 0 1
    outer loop
      vertex -10.874 -13.9668 27
      vertex -11.7557 -15.1803 27
      vertex -10.7165 -15.8866 27
    endloop
  endfacet
  facet normal 0 0 1
    outer loop
      vertex -11.7923 -13.2545 27
      vertex -11.7557 -15.1803 27
      vertex -10.874 -13.9668 27
    endloop
  endfacet
  facet normal 0 0 1
    outer loop
      vertex -12.7485 -14.4103 27
      vertex -11.7923 -13.2545 27
      vertex -12.6641 -12.4859 27
    endloop
  endfacet
  facet normal 0 0 1
    outer loop
      vertex -11.7923 -13.2545 27
      vertex -12.7485 -14.4103 27
      vertex -11.7557 -15.1803 27
    endloop
  endfacet
  facet normal 0 0 1
    outer loop
      vertex -13.6909 -13.5794 27
      vertex -12.6641 -12.4859 27
      vertex -13.4859 -11.6641 27
    endloop
  endfacet
  facet normal 0 0 1
    outer loop
      vertex -12.6641 -12.4859 27
      vertex -13.6909 -13.5794 27
      vertex -12.7485 -14.4103 27
    endloop
  endfacet
  facet normal 0 0 1
    outer loop
      vertex -14.5794 -12.6909 27
      vertex -13.4859 -11.6641 27
      vertex -14.2545 -10.7923 27
    endloop
  endfacet
  facet normal 0 0 1
    outer loop
      vertex -13.4859 -11.6641 27
      vertex -14.5794 -12.6909 27
      vertex -13.6909 -13.5794 27
    endloop
  endfacet
  facet normal 0 0 1
    outer loop
      vertex -15.4103 -11.7485 27
      vertex -14.2545 -10.7923 27
      vertex -14.9668 -9.87403 27
    endloop
  endfacet
  facet normal 0 0 1
    outer loop
      vertex -14.2545 -10.7923 27
      vertex -15.4103 -11.7485 27
      vertex -14.5794 -12.6909 27
    endloop
  endfacet
  facet normal 0 0 1
    outer loop
      vertex -16.1803 -10.7557 27
      vertex -14.9668 -9.87403 27
      vertex -15.6201 -8.9128 27
    endloop
  endfacet
  facet normal 0 0 1
    outer loop
      vertex -14.9668 -9.87403 27
      vertex -16.1803 -10.7557 27
      vertex -15.4103 -11.7485 27
    endloop
  endfacet
  facet normal 0 0 1
    outer loop
      vertex -16.8866 -9.71654 27
      vertex -15.6201 -8.9128 27
      vertex -16.2117 -7.91244 27
    endloop
  endfacet
  facet normal 0 0 1
    outer loop
      vertex -17.5261 -8.63507 27
      vertex -16.2117 -7.91244 27
      vertex -16.7393 -6.87692 27
    endloop
  endfacet
  facet normal 0 0 1
    outer loop
      vertex -15.6201 -8.9128 27
      vertex -16.8866 -9.71654 27
      vertex -16.1803 -10.7557 27
    endloop
  endfacet
  facet normal 0 0 1
    outer loop
      vertex -18.0965 -7.51558 27
      vertex -16.7393 -6.87692 27
      vertex -17.2009 -5.8103 27
    endloop
  endfacet
  facet normal 0 0 1
    outer loop
      vertex -16.2117 -7.91244 27
      vertex -17.5261 -8.63507 27
      vertex -16.8866 -9.71654 27
    endloop
  endfacet
  facet normal 0 0 1
    outer loop
      vertex -18.5955 -6.36249 27
      vertex -17.2009 -5.8103 27
      vertex -17.5945 -4.71681 27
    endloop
  endfacet
  facet normal 0 0 1
    outer loop
      vertex -19.0211 -5.18034 27
      vertex -17.5945 -4.71681 27
      vertex -17.9188 -3.60076 27
    endloop
  endfacet
  facet normal 0 0 1
    outer loop
      vertex -16.7393 -6.87692 27
      vertex -18.0965 -7.51558 27
      vertex -17.5261 -8.63507 27
    endloop
  endfacet
  facet normal 0 0 1
    outer loop
      vertex -19 -2 27
      vertex -17.9188 -3.60076 27
      vertex -18.1723 -2.46655 27
    endloop
  endfacet
  facet normal -0 0 1
    outer loop
      vertex -19 -2 27
      vertex -18.1723 -2.46655 27
      vertex -18.2462 -2 27
    endloop
  endfacet
  facet normal 0 0 1
    outer loop
      vertex -17.2009 -5.8103 27
      vertex -18.5955 -6.36249 27
      vertex -18.0965 -7.51558 27
    endloop
  endfacet
  facet normal 0 0 1
    outer loop
      vertex -17.9188 -3.60076 27
      vertex -19 -2 27
      vertex -19.0211 -5.18034 27
    endloop
  endfacet
  facet normal 0 0 1
    outer loop
      vertex -17.5945 -4.71681 27
      vertex -19.0211 -5.18034 27
      vertex -18.5955 -6.36249 27
    endloop
  endfacet
  facet normal 0.995562 -0.0941082 0
    outer loop
      vertex 19.8423 -1.50666 27
      vertex 19.9605 -0.25581 -23
      vertex 19.9605 -0.25581 27
    endloop
  endfacet
  facet normal 0.995562 -0.0941082 0
    outer loop
      vertex 19.9605 -0.25581 -23
      vertex 19.8423 -1.50666 27
      vertex 19.8423 -1.50666 -23
    endloop
  endfacet
  facet normal 0.975917 -0.218144 0
    outer loop
      vertex 19.3717 -3.9738 27
      vertex 19.6457 -2.74763 -23
      vertex 19.6457 -2.74763 27
    endloop
  endfacet
  facet normal 0.975917 -0.218144 0
    outer loop
      vertex 19.6457 -2.74763 -23
      vertex 19.3717 -3.9738 27
      vertex 19.3717 -3.9738 -23
    endloop
  endfacet
  facet normal 0.987688 -0.156434 0
    outer loop
      vertex 19.6457 -2.74763 27
      vertex 19.8423 -1.50666 -23
      vertex 19.8423 -1.50666 27
    endloop
  endfacet
  facet normal 0.987688 -0.156434 0
    outer loop
      vertex 19.8423 -1.50666 -23
      vertex 19.6457 -2.74763 27
      vertex 19.6457 -2.74763 -23
    endloop
  endfacet
  facet normal 0.999507 -0.0314114 0
    outer loop
      vertex 19.9605 -0.25581 27
      vertex 19.9969 0.9 -23
      vertex 19.9969 0.9 27
    endloop
  endfacet
  facet normal 0.999507 -0.0314114 0
    outer loop
      vertex 19.9969 0.9 -23
      vertex 19.9605 -0.25581 27
      vertex 19.9605 -0.25581 -23
    endloop
  endfacet
  facet normal 0 0 1
    outer loop
      vertex 19.9605 -0.25581 -23
      vertex 20 1 -23
      vertex 19.9969 0.9 -23
    endloop
  endfacet
  facet normal 0.960294 -0.278991 0
    outer loop
      vertex 19.0211 -5.18034 27
      vertex 19.3717 -3.9738 -23
      vertex 19.3717 -3.9738 27
    endloop
  endfacet
  facet normal 0.960294 -0.278991 0
    outer loop
      vertex 19.3717 -3.9738 -23
      vertex 19.0211 -5.18034 27
      vertex 19.0211 -5.18034 -23
    endloop
  endfacet
  facet normal -0.860742 0.509042 0
    outer loop
      vertex 15.6201 -8.9128 -21
      vertex 16.2117 -7.91244 27
      vertex 16.2117 -7.91244 -21
    endloop
  endfacet
  facet normal -0.860742 0.509042 0
    outer loop
      vertex 16.2117 -7.91244 27
      vertex 15.6201 -8.9128 -21
      vertex 15.6201 -8.9128 27
    endloop
  endfacet
  facet normal -0.218143 0.975917 0
    outer loop
      vertex 4.60076 -16.9188 -21
      vertex 3.46655 -17.1723 27
      vertex 4.60076 -16.9188 27
    endloop
  endfacet
  facet normal -0.218143 0.975917 0
    outer loop
      vertex 3.46655 -17.1723 27
      vertex 4.60076 -16.9188 -21
      vertex 3.46655 -17.1723 -21
    endloop
  endfacet
  facet normal -0.661312 0.750111 0
    outer loop
      vertex 12.6641 -12.4859 -21
      vertex 11.7923 -13.2545 27
      vertex 12.6641 -12.4859 27
    endloop
  endfacet
  facet normal -0.661312 0.750111 0
    outer loop
      vertex 11.7923 -13.2545 27
      vertex 12.6641 -12.4859 -21
      vertex 11.7923 -13.2545 -21
    endloop
  endfacet
  facet normal 0.338738 0.940881 -0
    outer loop
      vertex -5.71681 -16.5945 -21
      vertex -6.8103 -16.2009 27
      vertex -5.71681 -16.5945 27
    endloop
  endfacet
  facet normal 0.338738 0.940881 0
    outer loop
      vertex -6.8103 -16.2009 27
      vertex -5.71681 -16.5945 -21
      vertex -6.8103 -16.2009 -21
    endloop
  endfacet
  facet normal -0 0 1
    outer loop
      vertex 8 -5.10703e-015 -21
      vertex 15 -2 -21
      vertex 15 0.9 -21
    endloop
  endfacet
  facet normal 0 0 1
    outer loop
      vertex 15 -2 -21
      vertex 8 -5.10703e-015 -21
      vertex 14.9668 -9.87403 -21
    endloop
  endfacet
  facet normal 0 0 1
    outer loop
      vertex 8 -12 -21
      vertex 14.9668 -9.87403 -21
      vertex 8 -5.10703e-015 -21
    endloop
  endfacet
  facet normal 0 0 1
    outer loop
      vertex 14.9668 -9.87403 -21
      vertex 8 -12 -21
      vertex 14.2545 -10.7923 -21
    endloop
  endfacet
  facet normal 0 0 1
    outer loop
      vertex 14.2545 -10.7923 -21
      vertex 8 -12 -21
      vertex 13.4859 -11.6641 -21
    endloop
  endfacet
  facet normal 0 0 1
    outer loop
      vertex 13.4859 -11.6641 -21
      vertex 8 -12 -21
      vertex 12.6641 -12.4859 -21
    endloop
  endfacet
  facet normal 0 0 1
    outer loop
      vertex 11.7923 -13.2545 -21
      vertex 8 -12 -21
      vertex 10.874 -13.9668 -21
    endloop
  endfacet
  facet normal 0 0 1
    outer loop
      vertex 10.874 -13.9668 -21
      vertex 8 -12 -21
      vertex 9.9128 -14.6201 -21
    endloop
  endfacet
  facet normal 0 0 1
    outer loop
      vertex 12.6641 -12.4859 -21
      vertex 8 -12 -21
      vertex 11.7923 -13.2545 -21
    endloop
  endfacet
  facet normal 0 0 1
    outer loop
      vertex 15 0.9 -21
      vertex -2 -5.10703e-015 -21
      vertex 8 -5.10703e-015 -21
    endloop
  endfacet
  facet normal -0 0 1
    outer loop
      vertex -13.4859 -11.6641 -21
      vertex -2 -12 -21
      vertex -2 -5.10703e-015 -21
    endloop
  endfacet
  facet normal 0 0 1
    outer loop
      vertex -2 -12 -21
      vertex -3.46655 -17.1723 -21
      vertex -2.31866 -17.3541 -21
    endloop
  endfacet
  facet normal 0 0 1
    outer loop
      vertex -2 -12 -21
      vertex -4.60076 -16.9188 -21
      vertex -3.46655 -17.1723 -21
    endloop
  endfacet
  facet normal 0 0 1
    outer loop
      vertex -2 -12 -21
      vertex -5.71681 -16.5945 -21
      vertex -4.60076 -16.9188 -21
    endloop
  endfacet
  facet normal 0 0 1
    outer loop
      vertex -2 -12 -21
      vertex -6.8103 -16.2009 -21
      vertex -5.71681 -16.5945 -21
    endloop
  endfacet
  facet normal 0 0 1
    outer loop
      vertex -2 -12 -21
      vertex -7.87692 -15.7393 -21
      vertex -6.8103 -16.2009 -21
    endloop
  endfacet
  facet normal 0 0 1
    outer loop
      vertex -2 -12 -21
      vertex -8.91244 -15.2117 -21
      vertex -7.87692 -15.7393 -21
    endloop
  endfacet
  facet normal 0 0 1
    outer loop
      vertex -2 -12 -21
      vertex -9.9128 -14.6201 -21
      vertex -8.91244 -15.2117 -21
    endloop
  endfacet
  facet normal 0 0 1
    outer loop
      vertex -2 -12 -21
      vertex -10.874 -13.9668 -21
      vertex -9.9128 -14.6201 -21
    endloop
  endfacet
  facet normal 0 0 1
    outer loop
      vertex -2 -12 -21
      vertex -11.7923 -13.2545 -21
      vertex -10.874 -13.9668 -21
    endloop
  endfacet
  facet normal 0 0 1
    outer loop
      vertex -2 -12 -21
      vertex -12.6641 -12.4859 -21
      vertex -11.7923 -13.2545 -21
    endloop
  endfacet
  facet normal 0 0 1
    outer loop
      vertex -2 -12 -21
      vertex -13.4859 -11.6641 -21
      vertex -12.6641 -12.4859 -21
    endloop
  endfacet
  facet normal 0 0 1
    outer loop
      vertex -2 -5.10703e-015 -21
      vertex -14.2545 -10.7923 -21
      vertex -13.4859 -11.6641 -21
    endloop
  endfacet
  facet normal -0 0 1
    outer loop
      vertex -15 -2 -21
      vertex -14.2545 -10.7923 -21
      vertex -2 -5.10703e-015 -21
    endloop
  endfacet
  facet normal -0 0 1
    outer loop
      vertex -15 0.9 -21
      vertex -2 -5.10703e-015 -21
      vertex 15 0.9 -21
    endloop
  endfacet
  facet normal 0 0 1
    outer loop
      vertex -15 -2 -21
      vertex -2 -5.10703e-015 -21
      vertex -15 0.9 -21
    endloop
  endfacet
  facet normal 0 0 1
    outer loop
      vertex -14.2545 -10.7923 -21
      vertex -15 -2 -21
      vertex -14.9668 -9.87403 -21
    endloop
  endfacet
  facet normal 0 0 1
    outer loop
      vertex -15 -2 -21
      vertex -15.6201 -8.9128 -21
      vertex -14.9668 -9.87403 -21
    endloop
  endfacet
  facet normal 0 0 1
    outer loop
      vertex -15 -2 -21
      vertex -16.2117 -7.91244 -21
      vertex -15.6201 -8.9128 -21
    endloop
  endfacet
  facet normal 0 0 1
    outer loop
      vertex -15 -2 -21
      vertex -16.7393 -6.87692 -21
      vertex -16.2117 -7.91244 -21
    endloop
  endfacet
  facet normal 0 0 1
    outer loop
      vertex -15 -2 -21
      vertex -17.2009 -5.8103 -21
      vertex -16.7393 -6.87692 -21
    endloop
  endfacet
  facet normal 0 0 1
    outer loop
      vertex -15 -2 -21
      vertex -17.5945 -4.71681 -21
      vertex -17.2009 -5.8103 -21
    endloop
  endfacet
  facet normal 0 0 1
    outer loop
      vertex -15 -2 -21
      vertex -17.9188 -3.60076 -21
      vertex -17.5945 -4.71681 -21
    endloop
  endfacet
  facet normal 0 0 1
    outer loop
      vertex -15 -2 -21
      vertex -18.1723 -2.46655 -21
      vertex -17.9188 -3.60076 -21
    endloop
  endfacet
  facet normal 0 -0 1
    outer loop
      vertex -18.1723 -2.46655 -21
      vertex -15 -2 -21
      vertex -18.2462 -2 -21
    endloop
  endfacet
  facet normal -0 0 1
    outer loop
      vertex 15 -2 -21
      vertex 18.1723 -2.46655 -21
      vertex 18.2462 -2 -21
    endloop
  endfacet
  facet normal 0 0 1
    outer loop
      vertex 18.1723 -2.46655 -21
      vertex 15 -2 -21
      vertex 17.9188 -3.60076 -21
    endloop
  endfacet
  facet normal 0 0 1
    outer loop
      vertex 17.9188 -3.60076 -21
      vertex 15 -2 -21
      vertex 17.5945 -4.71681 -21
    endloop
  endfacet
  facet normal 0 0 1
    outer loop
      vertex 17.5945 -4.71681 -21
      vertex 15 -2 -21
      vertex 17.2009 -5.8103 -21
    endloop
  endfacet
  facet normal 0 0 1
    outer loop
      vertex 17.2009 -5.8103 -21
      vertex 15 -2 -21
      vertex 16.7393 -6.87692 -21
    endloop
  endfacet
  facet normal 0 0 1
    outer loop
      vertex 16.7393 -6.87692 -21
      vertex 15 -2 -21
      vertex 16.2117 -7.91244 -21
    endloop
  endfacet
  facet normal 0 0 1
    outer loop
      vertex 16.2117 -7.91244 -21
      vertex 15 -2 -21
      vertex 15.6201 -8.9128 -21
    endloop
  endfacet
  facet normal 0 0 1
    outer loop
      vertex 15.6201 -8.9128 -21
      vertex 15 -2 -21
      vertex 14.9668 -9.87403 -21
    endloop
  endfacet
  facet normal 0 0 1
    outer loop
      vertex 9.9128 -14.6201 -21
      vertex 8 -12 -21
      vertex 8.91244 -15.2117 -21
    endloop
  endfacet
  facet normal 0 0 1
    outer loop
      vertex 8 -12 -21
      vertex 7.87692 -15.7393 -21
      vertex 8.91244 -15.2117 -21
    endloop
  endfacet
  facet normal 0 0 1
    outer loop
      vertex 8 -12 -21
      vertex 6.8103 -16.2009 -21
      vertex 7.87692 -15.7393 -21
    endloop
  endfacet
  facet normal 0 0 1
    outer loop
      vertex 8 -12 -21
      vertex 5.71681 -16.5945 -21
      vertex 6.8103 -16.2009 -21
    endloop
  endfacet
  facet normal 0 0 1
    outer loop
      vertex 8 -12 -21
      vertex 4.60076 -16.9188 -21
      vertex 5.71681 -16.5945 -21
    endloop
  endfacet
  facet normal -0 0 1
    outer loop
      vertex -2 -12 -21
      vertex 4.60076 -16.9188 -21
      vertex 8 -12 -21
    endloop
  endfacet
  facet normal 0 0 1
    outer loop
      vertex 4.60076 -16.9188 -21
      vertex -2 -12 -21
      vertex 3.46655 -17.1723 -21
    endloop
  endfacet
  facet normal 0 0 1
    outer loop
      vertex 3.46655 -17.1723 -21
      vertex -2 -12 -21
      vertex 2.31866 -17.3541 -21
    endloop
  endfacet
  facet normal 0 0 1
    outer loop
      vertex 2.31866 -17.3541 -21
      vertex -2 -12 -21
      vertex 1.16162 -17.4635 -21
    endloop
  endfacet
  facet normal 0 0 1
    outer loop
      vertex 1.16162 -17.4635 -21
      vertex -2 -12 -21
      vertex 0 -17.5 -21
    endloop
  endfacet
  facet normal 0 0 1
    outer loop
      vertex 0 -17.5 -21
      vertex -2 -12 -21
      vertex -1.16162 -17.4635 -21
    endloop
  endfacet
  facet normal 0 0 1
    outer loop
      vertex -1.16162 -17.4635 -21
      vertex -2 -12 -21
      vertex -2.31866 -17.3541 -21
    endloop
  endfacet
  facet normal -0.0314101 0.999507 0
    outer loop
      vertex 1.16162 -17.4635 -21
      vertex 0 -17.5 27
      vertex 1.16162 -17.4635 27
    endloop
  endfacet
  facet normal -0.0314101 0.999507 0
    outer loop
      vertex 0 -17.5 27
      vertex 1.16162 -17.4635 -21
      vertex 0 -17.5 -21
    endloop
  endfacet
  facet normal -0.612907 0.790155 0
    outer loop
      vertex 11.7923 -13.2545 -21
      vertex 10.874 -13.9668 27
      vertex 11.7923 -13.2545 27
    endloop
  endfacet
  facet normal -0.612907 0.790155 0
    outer loop
      vertex 10.874 -13.9668 27
      vertex 11.7923 -13.2545 -21
      vertex 10.874 -13.9668 -21
    endloop
  endfacet
  facet normal -0.750111 0.661312 0
    outer loop
      vertex 13.4859 -11.6641 -21
      vertex 14.2545 -10.7923 27
      vertex 14.2545 -10.7923 -21
    endloop
  endfacet
  facet normal -0.750111 0.661312 0
    outer loop
      vertex 14.2545 -10.7923 27
      vertex 13.4859 -11.6641 -21
      vertex 13.4859 -11.6641 27
    endloop
  endfacet
  facet normal -0.987688 0.156434 0
    outer loop
      vertex 18.1723 -2.46655 -21
      vertex 18.2462 -2 27
      vertex 18.2462 -2 -21
    endloop
  endfacet
  facet normal -0.987688 0.156434 0
    outer loop
      vertex 18.2462 -2 27
      vertex 18.1723 -2.46655 -21
      vertex 18.1723 -2.46655 27
    endloop
  endfacet
  facet normal 0.612907 0.790155 -0
    outer loop
      vertex -10.874 -13.9668 -21
      vertex -11.7923 -13.2545 27
      vertex -10.874 -13.9668 27
    endloop
  endfacet
  facet normal 0.612907 0.790155 0
    outer loop
      vertex -11.7923 -13.2545 27
      vertex -10.874 -13.9668 -21
      vertex -11.7923 -13.2545 -21
    endloop
  endfacet
  facet normal 0.0314101 0.999507 -0
    outer loop
      vertex 0 -17.5 -21
      vertex -1.16162 -17.4635 27
      vertex 0 -17.5 27
    endloop
  endfacet
  facet normal 0.0314101 0.999507 0
    outer loop
      vertex -1.16162 -17.4635 27
      vertex 0 -17.5 -21
      vertex -1.16162 -17.4635 -21
    endloop
  endfacet
  facet normal 0.917755 0.397148 0
    outer loop
      vertex -16.7393 -6.87692 27
      vertex -17.2009 -5.8103 -21
      vertex -17.2009 -5.8103 27
    endloop
  endfacet
  facet normal 0.917755 0.397148 0
    outer loop
      vertex -17.2009 -5.8103 -21
      vertex -16.7393 -6.87692 27
      vertex -16.7393 -6.87692 -21
    endloop
  endfacet
  facet normal 0.891007 0.45399 0
    outer loop
      vertex -16.2117 -7.91244 27
      vertex -16.7393 -6.87692 -21
      vertex -16.7393 -6.87692 27
    endloop
  endfacet
  facet normal 0.891007 0.45399 0
    outer loop
      vertex -16.7393 -6.87692 -21
      vertex -16.2117 -7.91244 27
      vertex -16.2117 -7.91244 -21
    endloop
  endfacet
  facet normal 0.987688 0.156434 0
    outer loop
      vertex -18.1723 -2.46655 27
      vertex -18.2462 -2 -21
      vertex -18.2462 -2 27
    endloop
  endfacet
  facet normal 0.987688 0.156434 0
    outer loop
      vertex -18.2462 -2 -21
      vertex -18.1723 -2.46655 27
      vertex -18.1723 -2.46655 -21
    endloop
  endfacet
  facet normal -0.0941088 0.995562 0
    outer loop
      vertex 2.31866 -17.3541 -21
      vertex 1.16162 -17.4635 27
      vertex 2.31866 -17.3541 27
    endloop
  endfacet
  facet normal -0.0941088 0.995562 0
    outer loop
      vertex 1.16162 -17.4635 27
      vertex 2.31866 -17.3541 -21
      vertex 1.16162 -17.4635 -21
    endloop
  endfacet
  facet normal -0.338738 0.940881 0
    outer loop
      vertex 6.8103 -16.2009 -21
      vertex 5.71681 -16.5945 27
      vertex 6.8103 -16.2009 27
    endloop
  endfacet
  facet normal -0.338738 0.940881 0
    outer loop
      vertex 5.71681 -16.5945 27
      vertex 6.8103 -16.2009 -21
      vertex 5.71681 -16.5945 -21
    endloop
  endfacet
  facet normal -0.707107 0.707107 0
    outer loop
      vertex 12.6641 -12.4859 -21
      vertex 13.4859 -11.6641 27
      vertex 13.4859 -11.6641 -21
    endloop
  endfacet
  facet normal -0.707107 0.707107 0
    outer loop
      vertex 13.4859 -11.6641 27
      vertex 12.6641 -12.4859 -21
      vertex 12.6641 -12.4859 27
    endloop
  endfacet
  facet normal -0.509041 0.860742 0
    outer loop
      vertex 9.9128 -14.6201 -21
      vertex 8.91244 -15.2117 27
      vertex 9.9128 -14.6201 27
    endloop
  endfacet
  facet normal -0.509041 0.860742 0
    outer loop
      vertex 8.91244 -15.2117 27
      vertex 9.9128 -14.6201 -21
      vertex 8.91244 -15.2117 -21
    endloop
  endfacet
  facet normal -0.397148 0.917755 0
    outer loop
      vertex 7.87692 -15.7393 -21
      vertex 6.8103 -16.2009 27
      vertex 7.87692 -15.7393 27
    endloop
  endfacet
  facet normal -0.397148 0.917755 0
    outer loop
      vertex 6.8103 -16.2009 27
      vertex 7.87692 -15.7393 -21
      vertex 6.8103 -16.2009 -21
    endloop
  endfacet
  facet normal -0.790155 0.612907 0
    outer loop
      vertex 14.2545 -10.7923 -21
      vertex 14.9668 -9.87403 27
      vertex 14.9668 -9.87403 -21
    endloop
  endfacet
  facet normal -0.790155 0.612907 0
    outer loop
      vertex 14.9668 -9.87403 27
      vertex 14.2545 -10.7923 -21
      vertex 14.2545 -10.7923 27
    endloop
  endfacet
  facet normal -0.917755 0.397148 0
    outer loop
      vertex 16.7393 -6.87692 -21
      vertex 17.2009 -5.8103 27
      vertex 17.2009 -5.8103 -21
    endloop
  endfacet
  facet normal -0.917755 0.397148 0
    outer loop
      vertex 17.2009 -5.8103 27
      vertex 16.7393 -6.87692 -21
      vertex 16.7393 -6.87692 27
    endloop
  endfacet
  facet normal -0.940881 0.338738 0
    outer loop
      vertex 17.2009 -5.8103 -21
      vertex 17.5945 -4.71681 27
      vertex 17.5945 -4.71681 -21
    endloop
  endfacet
  facet normal -0.940881 0.338738 0
    outer loop
      vertex 17.5945 -4.71681 27
      vertex 17.2009 -5.8103 -21
      vertex 17.2009 -5.8103 27
    endloop
  endfacet
  facet normal -0.960294 0.278992 0
    outer loop
      vertex 17.5945 -4.71681 -21
      vertex 17.9188 -3.60076 27
      vertex 17.9188 -3.60076 -21
    endloop
  endfacet
  facet normal -0.960294 0.278992 0
    outer loop
      vertex 17.9188 -3.60076 27
      vertex 17.5945 -4.71681 -21
      vertex 17.5945 -4.71681 27
    endloop
  endfacet
  facet normal 0.707107 0.707107 0
    outer loop
      vertex -12.6641 -12.4859 27
      vertex -13.4859 -11.6641 -21
      vertex -13.4859 -11.6641 27
    endloop
  endfacet
  facet normal 0.707107 0.707107 0
    outer loop
      vertex -13.4859 -11.6641 -21
      vertex -12.6641 -12.4859 27
      vertex -12.6641 -12.4859 -21
    endloop
  endfacet
  facet normal 0.661312 0.750111 -0
    outer loop
      vertex -11.7923 -13.2545 -21
      vertex -12.6641 -12.4859 27
      vertex -11.7923 -13.2545 27
    endloop
  endfacet
  facet normal 0.661312 0.750111 0
    outer loop
      vertex -12.6641 -12.4859 27
      vertex -11.7923 -13.2545 -21
      vertex -12.6641 -12.4859 -21
    endloop
  endfacet
  facet normal 0.453991 0.891006 -0
    outer loop
      vertex -7.87692 -15.7393 -21
      vertex -8.91244 -15.2117 27
      vertex -7.87692 -15.7393 27
    endloop
  endfacet
  facet normal 0.453991 0.891006 0
    outer loop
      vertex -8.91244 -15.2117 27
      vertex -7.87692 -15.7393 -21
      vertex -8.91244 -15.2117 -21
    endloop
  endfacet
  facet normal 0.562083 0.827081 -0
    outer loop
      vertex -9.9128 -14.6201 -21
      vertex -10.874 -13.9668 27
      vertex -9.9128 -14.6201 27
    endloop
  endfacet
  facet normal 0.562083 0.827081 0
    outer loop
      vertex -10.874 -13.9668 27
      vertex -9.9128 -14.6201 -21
      vertex -10.874 -13.9668 -21
    endloop
  endfacet
  facet normal 0.278992 0.960294 -0
    outer loop
      vertex -4.60076 -16.9188 -21
      vertex -5.71681 -16.5945 27
      vertex -4.60076 -16.9188 27
    endloop
  endfacet
  facet normal 0.278992 0.960294 0
    outer loop
      vertex -5.71681 -16.5945 27
      vertex -4.60076 -16.9188 -21
      vertex -5.71681 -16.5945 -21
    endloop
  endfacet
  facet normal 0.156435 0.987688 -0
    outer loop
      vertex -2.31866 -17.3541 -21
      vertex -3.46655 -17.1723 27
      vertex -2.31866 -17.3541 27
    endloop
  endfacet
  facet normal 0.156435 0.987688 0
    outer loop
      vertex -3.46655 -17.1723 27
      vertex -2.31866 -17.3541 -21
      vertex -3.46655 -17.1723 -21
    endloop
  endfacet
  facet normal 0.0941088 0.995562 -0
    outer loop
      vertex -1.16162 -17.4635 -21
      vertex -2.31866 -17.3541 27
      vertex -1.16162 -17.4635 27
    endloop
  endfacet
  facet normal 0.0941088 0.995562 0
    outer loop
      vertex -2.31866 -17.3541 27
      vertex -1.16162 -17.4635 -21
      vertex -2.31866 -17.3541 -21
    endloop
  endfacet
  facet normal 0.750111 0.661312 0
    outer loop
      vertex -13.4859 -11.6641 27
      vertex -14.2545 -10.7923 -21
      vertex -14.2545 -10.7923 27
    endloop
  endfacet
  facet normal 0.750111 0.661312 0
    outer loop
      vertex -14.2545 -10.7923 -21
      vertex -13.4859 -11.6641 27
      vertex -13.4859 -11.6641 -21
    endloop
  endfacet
  facet normal 0.827081 0.562083 0
    outer loop
      vertex -14.9668 -9.87403 27
      vertex -15.6201 -8.9128 -21
      vertex -15.6201 -8.9128 27
    endloop
  endfacet
  facet normal 0.827081 0.562083 0
    outer loop
      vertex -15.6201 -8.9128 -21
      vertex -14.9668 -9.87403 27
      vertex -14.9668 -9.87403 -21
    endloop
  endfacet
  facet normal 0.790155 0.612907 0
    outer loop
      vertex -14.2545 -10.7923 27
      vertex -14.9668 -9.87403 -21
      vertex -14.9668 -9.87403 27
    endloop
  endfacet
  facet normal 0.790155 0.612907 0
    outer loop
      vertex -14.9668 -9.87403 -21
      vertex -14.2545 -10.7923 27
      vertex -14.2545 -10.7923 -21
    endloop
  endfacet
  facet normal 0.940881 0.338738 0
    outer loop
      vertex -17.2009 -5.8103 27
      vertex -17.5945 -4.71681 -21
      vertex -17.5945 -4.71681 27
    endloop
  endfacet
  facet normal 0.940881 0.338738 0
    outer loop
      vertex -17.5945 -4.71681 -21
      vertex -17.2009 -5.8103 27
      vertex -17.2009 -5.8103 -21
    endloop
  endfacet
  facet normal 0.975917 0.218143 0
    outer loop
      vertex -17.9188 -3.60076 27
      vertex -18.1723 -2.46655 -21
      vertex -18.1723 -2.46655 27
    endloop
  endfacet
  facet normal 0.975917 0.218143 0
    outer loop
      vertex -18.1723 -2.46655 -21
      vertex -17.9188 -3.60076 27
      vertex -17.9188 -3.60076 -21
    endloop
  endfacet
  facet normal 0.960294 0.278992 0
    outer loop
      vertex -17.5945 -4.71681 27
      vertex -17.9188 -3.60076 -21
      vertex -17.9188 -3.60076 27
    endloop
  endfacet
  facet normal 0.960294 0.278992 0
    outer loop
      vertex -17.9188 -3.60076 -21
      vertex -17.5945 -4.71681 27
      vertex -17.5945 -4.71681 -21
    endloop
  endfacet
  facet normal -0.156435 0.987688 0
    outer loop
      vertex 3.46655 -17.1723 -21
      vertex 2.31866 -17.3541 27
      vertex 3.46655 -17.1723 27
    endloop
  endfacet
  facet normal -0.156435 0.987688 0
    outer loop
      vertex 2.31866 -17.3541 27
      vertex 3.46655 -17.1723 -21
      vertex 2.31866 -17.3541 -21
    endloop
  endfacet
  facet normal -0.278992 0.960294 0
    outer loop
      vertex 5.71681 -16.5945 -21
      vertex 4.60076 -16.9188 27
      vertex 5.71681 -16.5945 27
    endloop
  endfacet
  facet normal -0.278992 0.960294 0
    outer loop
      vertex 4.60076 -16.9188 27
      vertex 5.71681 -16.5945 -21
      vertex 4.60076 -16.9188 -21
    endloop
  endfacet
  facet normal -0.453991 0.891006 0
    outer loop
      vertex 8.91244 -15.2117 -21
      vertex 7.87692 -15.7393 27
      vertex 8.91244 -15.2117 27
    endloop
  endfacet
  facet normal -0.453991 0.891006 0
    outer loop
      vertex 7.87692 -15.7393 27
      vertex 8.91244 -15.2117 -21
      vertex 7.87692 -15.7393 -21
    endloop
  endfacet
  facet normal -0.562083 0.827081 0
    outer loop
      vertex 10.874 -13.9668 -21
      vertex 9.9128 -14.6201 27
      vertex 10.874 -13.9668 27
    endloop
  endfacet
  facet normal -0.562083 0.827081 0
    outer loop
      vertex 9.9128 -14.6201 27
      vertex 10.874 -13.9668 -21
      vertex 9.9128 -14.6201 -21
    endloop
  endfacet
  facet normal -0.827081 0.562083 0
    outer loop
      vertex 14.9668 -9.87403 -21
      vertex 15.6201 -8.9128 27
      vertex 15.6201 -8.9128 -21
    endloop
  endfacet
  facet normal -0.827081 0.562083 0
    outer loop
      vertex 15.6201 -8.9128 27
      vertex 14.9668 -9.87403 -21
      vertex 14.9668 -9.87403 27
    endloop
  endfacet
  facet normal -0.891007 0.45399 0
    outer loop
      vertex 16.2117 -7.91244 -21
      vertex 16.7393 -6.87692 27
      vertex 16.7393 -6.87692 -21
    endloop
  endfacet
  facet normal -0.891007 0.45399 0
    outer loop
      vertex 16.7393 -6.87692 27
      vertex 16.2117 -7.91244 -21
      vertex 16.2117 -7.91244 27
    endloop
  endfacet
  facet normal 0.397148 0.917755 -0
    outer loop
      vertex -6.8103 -16.2009 -21
      vertex -7.87692 -15.7393 27
      vertex -6.8103 -16.2009 27
    endloop
  endfacet
  facet normal 0.397148 0.917755 0
    outer loop
      vertex -7.87692 -15.7393 27
      vertex -6.8103 -16.2009 -21
      vertex -7.87692 -15.7393 -21
    endloop
  endfacet
  facet normal 0.509041 0.860742 -0
    outer loop
      vertex -8.91244 -15.2117 -21
      vertex -9.9128 -14.6201 27
      vertex -8.91244 -15.2117 27
    endloop
  endfacet
  facet normal 0.509041 0.860742 0
    outer loop
      vertex -9.9128 -14.6201 27
      vertex -8.91244 -15.2117 -21
      vertex -9.9128 -14.6201 -21
    endloop
  endfacet
  facet normal 0.218143 0.975917 -0
    outer loop
      vertex -3.46655 -17.1723 -21
      vertex -4.60076 -16.9188 27
      vertex -3.46655 -17.1723 27
    endloop
  endfacet
  facet normal 0.218143 0.975917 0
    outer loop
      vertex -4.60076 -16.9188 27
      vertex -3.46655 -17.1723 -21
      vertex -4.60076 -16.9188 -21
    endloop
  endfacet
  facet normal 0.860742 0.509042 0
    outer loop
      vertex -15.6201 -8.9128 27
      vertex -16.2117 -7.91244 -21
      vertex -16.2117 -7.91244 27
    endloop
  endfacet
  facet normal 0.860742 0.509042 0
    outer loop
      vertex -16.2117 -7.91244 -21
      vertex -15.6201 -8.9128 27
      vertex -15.6201 -8.9128 -21
    endloop
  endfacet
  facet normal -0.975917 0.218143 0
    outer loop
      vertex 17.9188 -3.60076 -21
      vertex 18.1723 -2.46655 27
      vertex 18.1723 -2.46655 -21
    endloop
  endfacet
  facet normal -0.975917 0.218143 0
    outer loop
      vertex 18.1723 -2.46655 27
      vertex 17.9188 -3.60076 -21
      vertex 17.9188 -3.60076 27
    endloop
  endfacet
  facet normal 1 -0 0
    outer loop
      vertex -2 -12 -21
      vertex -2 -5.10703e-015 -23
      vertex -2 -5.10703e-015 -21
    endloop
  endfacet
  facet normal 1 0 0
    outer loop
      vertex -2 -5.10703e-015 -23
      vertex -2 -12 -21
      vertex -2 -12 -23
    endloop
  endfacet
  facet normal -1 0 0
    outer loop
      vertex 8 -12 -23
      vertex 8 -5.10703e-015 -21
      vertex 8 -5.10703e-015 -23
    endloop
  endfacet
  facet normal -1 -0 0
    outer loop
      vertex 8 -5.10703e-015 -21
      vertex 8 -12 -23
      vertex 8 -12 -21
    endloop
  endfacet
  facet normal 0 -1 0
    outer loop
      vertex -2 -5.10703e-015 -23
      vertex 8 -5.10703e-015 -21
      vertex -2 -5.10703e-015 -21
    endloop
  endfacet
  facet normal 0 -1 -0
    outer loop
      vertex 8 -5.10703e-015 -21
      vertex -2 -5.10703e-015 -23
      vertex 8 -5.10703e-015 -23
    endloop
  endfacet
  facet normal 0 1 -0
    outer loop
      vertex 8 -12 -23
      vertex -2 -12 -21
      vertex 8 -12 -21
    endloop
  endfacet
  facet normal 0 1 0
    outer loop
      vertex -2 -12 -21
      vertex 8 -12 -23
      vertex -2 -12 -23
    endloop
  endfacet
  facet normal -1 0 0
    outer loop
      vertex -20 1 -23
      vertex -20 4 27
      vertex -20 4 -23
    endloop
  endfacet
  facet normal -1 0 0
    outer loop
      vertex -20 0.9 27
      vertex -20 1 -23
      vertex -20 0.9 -23
    endloop
  endfacet
  facet normal -1 0 0
    outer loop
      vertex -20 1 -23
      vertex -20 0.9 27
      vertex -20 4 27
    endloop
  endfacet
  facet normal 0 -1 0
    outer loop
      vertex -20 0.9 -23
      vertex -19.9969 0.9 27
      vertex -20 0.9 27
    endloop
  endfacet
  facet normal 0 -1 -0
    outer loop
      vertex -19.9969 0.9 27
      vertex -20 0.9 -23
      vertex -19.9969 0.9 -23
    endloop
  endfacet
  facet normal 0 0 0
    outer loop
      vertex -20 0.9 27
      vertex -19.9969 0.9 27
      vertex -19 0.9 27
    endloop
  endfacet
  facet normal 0 -1 0
    outer loop
      vertex 19.9969 0.9 -23
      vertex 20 0.9 27
      vertex 19.9969 0.9 27
    endloop
  endfacet
  facet normal 0 -1 -0
    outer loop
      vertex 20 0.9 27
      vertex 19.9969 0.9 -23
      vertex 20 0.9 -23
    endloop
  endfacet
  facet normal 0 0 0
    outer loop
      vertex 20 0.9 27
      vertex 19 0.9 27
      vertex 19.9969 0.9 27
    endloop
  endfacet
  facet normal 1 0 0
    outer loop
      vertex 20 4 27
      vertex 20 1 -23
      vertex 20 4 -23
    endloop
  endfacet
  facet normal 1 -0 0
    outer loop
      vertex 20 0.9 27
      vertex 20 1 -23
      vertex 20 4 27
    endloop
  endfacet
  facet normal 1 0 0
    outer loop
      vertex 20 1 -23
      vertex 20 0.9 27
      vertex 20 0.9 -23
    endloop
  endfacet
  facet normal 0 1 -0
    outer loop
      vertex 20 4 -23
      vertex -20 4 27
      vertex 20 4 27
    endloop
  endfacet
  facet normal 0 1 0
    outer loop
      vertex -20 4 27
      vertex 20 4 -23
      vertex -20 4 -23
    endloop
  endfacet
  facet normal 0 0 -1
    outer loop
      vertex -20 0.9 -23
      vertex -20 1 -23
      vertex -19.9969 0.9 -23
    endloop
  endfacet
  facet normal 0 0 -1
    outer loop
      vertex 20 0.9 -23
      vertex 19.9969 0.9 -23
      vertex 20 1 -23
    endloop
  endfacet
  facet normal 0 0 -1
    outer loop
      vertex -20 1 -23
      vertex 20 4 -23
      vertex 20 1 -23
    endloop
  endfacet
  facet normal -0 0 -1
    outer loop
      vertex 20 4 -23
      vertex -20 1 -23
      vertex -20 4 -23
    endloop
  endfacet
  facet normal 0 0 1
    outer loop
      vertex 20 4 27
      vertex 19 0.9 27
      vertex 20 0.9 27
    endloop
  endfacet
  facet normal 0 0 1
    outer loop
      vertex 17 -0.75 27
      vertex 19 0.9 27
      vertex 17 1.25 27
    endloop
  endfacet
  facet normal 0 0 1
    outer loop
      vertex 20 4 27
      vertex 17 1.25 27
      vertex 19 0.9 27
    endloop
  endfacet
  facet normal 0 0 1
    outer loop
      vertex 20 4 27
      vertex 15 2 27
      vertex 17 1.25 27
    endloop
  endfacet
  facet normal 0 0 1
    outer loop
      vertex 20 4 27
      vertex -15 2 27
      vertex 15 2 27
    endloop
  endfacet
  facet normal 0 0 1
    outer loop
      vertex -15 2 27
      vertex -17 1.25 27
      vertex -15 1.25 27
    endloop
  endfacet
  facet normal 0 0 1
    outer loop
      vertex -17 1.25 27
      vertex -19 0.9 27
      vertex -17 -0.75 27
    endloop
  endfacet
  facet normal 0 0 1
    outer loop
      vertex -20 4 27
      vertex -17 1.25 27
      vertex -15 2 27
    endloop
  endfacet
  facet normal -0 0 1
    outer loop
      vertex -20 4 27
      vertex -15 2 27
      vertex 20 4 27
    endloop
  endfacet
  facet normal 0 0 1
    outer loop
      vertex -17 1.25 27
      vertex -20 4 27
      vertex -19 0.9 27
    endloop
  endfacet
  facet normal 0 0 1
    outer loop
      vertex -19 0.9 27
      vertex -20 4 27
      vertex -20 0.9 27
    endloop
  endfacet
  facet normal 0 0 1
    outer loop
      vertex 19 0.9 27
      vertex 17 -0.75 27
      vertex 19 -2 27
    endloop
  endfacet
  facet normal 0 0 1
    outer loop
      vertex 15 -2 27
      vertex 17 -0.75 27
      vertex 15 -0.75 27
    endloop
  endfacet
  facet normal 0 0 1
    outer loop
      vertex 17 -0.75 27
      vertex 15 -2 27
      vertex 19 -2 27
    endloop
  endfacet
  facet normal 0 0 1
    outer loop
      vertex 17 1.25 27
      vertex 15 2 27
      vertex 15 1.25 27
    endloop
  endfacet
  facet normal -0 0 1
    outer loop
      vertex -17 -0.75 27
      vertex -15 -2 27
      vertex -15 -0.75 27
    endloop
  endfacet
  facet normal 0 0 1
    outer loop
      vertex -17 -0.75 27
      vertex -19 -2 27
      vertex -15 -2 27
    endloop
  endfacet
  facet normal 0 0 1
    outer loop
      vertex -19 -2 27
      vertex -17 -0.75 27
      vertex -19 0.9 27
    endloop
  endfacet
  facet normal 1 -0 0
    outer loop
      vertex -17 -0.75 27
      vertex -17 1.25 -21
      vertex -17 1.25 27
    endloop
  endfacet
  facet normal 1 0 0
    outer loop
      vertex -17 1.25 -21
      vertex -17 -0.75 27
      vertex -17 -0.75 -21
    endloop
  endfacet
  facet normal -1 0 0
    outer loop
      vertex 17 -0.75 -21
      vertex 17 1.25 27
      vertex 17 1.25 -21
    endloop
  endfacet
  facet normal -1 -0 0
    outer loop
      vertex 17 1.25 27
      vertex 17 -0.75 -21
      vertex 17 -0.75 27
    endloop
  endfacet
  facet normal 0 -1 0
    outer loop
      vertex -15 2 -21
      vertex 15 2 27
      vertex -15 2 27
    endloop
  endfacet
  facet normal 0 -1 -0
    outer loop
      vertex 15 2 27
      vertex -15 2 -21
      vertex 15 2 -21
    endloop
  endfacet
  facet normal 0 0 1
    outer loop
      vertex 15 0.9 -21
      vertex 17 1.25 -21
      vertex 15 1.25 -21
    endloop
  endfacet
  facet normal 0 0 1
    outer loop
      vertex 17 1.25 -21
      vertex 15 0.9 -21
      vertex 17 -0.75 -21
    endloop
  endfacet
  facet normal 0 0 1
    outer loop
      vertex 17 -0.75 -21
      vertex 15 0.9 -21
      vertex 15 -0.75 -21
    endloop
  endfacet
  facet normal 0 0 1
    outer loop
      vertex -15 1.25 -21
      vertex 15 1.25 -21
      vertex 15 2 -21
    endloop
  endfacet
  facet normal 0 0 1
    outer loop
      vertex -15 1.25 -21
      vertex 15 2 -21
      vertex -15 2 -21
    endloop
  endfacet
  facet normal 0 0 1
    outer loop
      vertex 15 1.25 -21
      vertex -15 1.25 -21
      vertex 15 0.9 -21
    endloop
  endfacet
  facet normal 0 0 1
    outer loop
      vertex -15 1.25 -21
      vertex -15 0.9 -21
      vertex 15 0.9 -21
    endloop
  endfacet
  facet normal -0 0 1
    outer loop
      vertex -17 1.25 -21
      vertex -15 0.9 -21
      vertex -15 1.25 -21
    endloop
  endfacet
  facet normal 0 0 1
    outer loop
      vertex -17 -0.75 -21
      vertex -15 0.9 -21
      vertex -17 1.25 -21
    endloop
  endfacet
  facet normal 0 0 1
    outer loop
      vertex -15 0.9 -21
      vertex -17 -0.75 -21
      vertex -15 -0.75 -21
    endloop
  endfacet
  facet normal 0 -1 0
    outer loop
      vertex -18.2462 -2 -21
      vertex -15 -2 27
      vertex -18.2462 -2 27
    endloop
  endfacet
  facet normal 0 -1 -0
    outer loop
      vertex -15 -2 27
      vertex -18.2462 -2 -21
      vertex -15 -2 -21
    endloop
  endfacet
  facet normal 0 0 0
    outer loop
      vertex -15 -2 27
      vertex -19 -2 27
      vertex -18.2462 -2 27
    endloop
  endfacet
  facet normal 1 -0 0
    outer loop
      vertex -15 -2 27
      vertex -15 -0.75 -21
      vertex -15 -0.75 27
    endloop
  endfacet
  facet normal 1 0 0
    outer loop
      vertex -15 -0.75 -21
      vertex -15 -2 27
      vertex -15 -2 -21
    endloop
  endfacet
  facet normal 0 0 0
    outer loop
      vertex -15 -0.75 -21
      vertex -15 -2 -21
      vertex -15 0.9 -21
    endloop
  endfacet
  facet normal 1 -0 0
    outer loop
      vertex -15 1.25 27
      vertex -15 2 -21
      vertex -15 2 27
    endloop
  endfacet
  facet normal 1 0 0
    outer loop
      vertex -15 2 -21
      vertex -15 1.25 27
      vertex -15 1.25 -21
    endloop
  endfacet
  facet normal -1 0 0
    outer loop
      vertex 15 1.25 -21
      vertex 15 2 27
      vertex 15 2 -21
    endloop
  endfacet
  facet normal -1 -0 0
    outer loop
      vertex 15 2 27
      vertex 15 1.25 -21
      vertex 15 1.25 27
    endloop
  endfacet
  facet normal -1 0 0
    outer loop
      vertex 15 -2 -21
      vertex 15 -0.75 27
      vertex 15 -0.75 -21
    endloop
  endfacet
  facet normal -1 -0 0
    outer loop
      vertex 15 -0.75 27
      vertex 15 -2 -21
      vertex 15 -2 27
    endloop
  endfacet
  facet normal 0 0 0
    outer loop
      vertex 15 -0.75 -21
      vertex 15 0.9 -21
      vertex 15 -2 -21
    endloop
  endfacet
  facet normal 0 -1 0
    outer loop
      vertex 15 -2 -21
      vertex 18.2462 -2 27
      vertex 15 -2 27
    endloop
  endfacet
  facet normal 0 -1 -0
    outer loop
      vertex 18.2462 -2 27
      vertex 15 -2 -21
      vertex 18.2462 -2 -21
    endloop
  endfacet
  facet normal 0 0 0
    outer loop
      vertex 15 -2 27
      vertex 18.2462 -2 27
      vertex 19 -2 27
    endloop
  endfacet
  facet normal 0 1 -0
    outer loop
      vertex -15 -0.75 -21
      vertex -17 -0.75 27
      vertex -15 -0.75 27
    endloop
  endfacet
  facet normal 0 1 0
    outer loop
      vertex -17 -0.75 27
      vertex -15 -0.75 -21
      vertex -17 -0.75 -21
    endloop
  endfacet
  facet normal 0 1 -0
    outer loop
      vertex 17 -0.75 -21
      vertex 15 -0.75 27
      vertex 17 -0.75 27
    endloop
  endfacet
  facet normal 0 1 0
    outer loop
      vertex 15 -0.75 27
      vertex 17 -0.75 -21
      vertex 15 -0.75 -21
    endloop
  endfacet
  facet normal 0 -1 0
    outer loop
      vertex -17 1.25 -21
      vertex -15 1.25 27
      vertex -17 1.25 27
    endloop
  endfacet
  facet normal 0 -1 -0
    outer loop
      vertex -15 1.25 27
      vertex -17 1.25 -21
      vertex -15 1.25 -21
    endloop
  endfacet
  facet normal 0 -1 0
    outer loop
      vertex 15 1.25 -21
      vertex 17 1.25 27
      vertex 15 1.25 27
    endloop
  endfacet
  facet normal 0 -1 -0
    outer loop
      vertex 17 1.25 27
      vertex 15 1.25 -21
      vertex 17 1.25 -21
    endloop
  endfacet
endsolid OpenSCAD_Model
